# xmcd
# 
# Track frame offsets:
#     150
#     17157
#     38103
#     54017
#     67366
#     77815
#     111565
# 
# Disc length: 1819
# 
# Revision: 0
# Processed by: cddbd v1.5.2PL0 Copyright (c) Steve Scherf et al.
# Submitted via: fre:ac v1.0.17
# 
DISCID=5c071907
DTITLE=Saint Saviour - Suukei (EP)
DYEAR=2011
DGENRE=
TTITLE0=Red Sun
TTITLE1=This Aint no Hymn
TTITLE2=Here in Me
TTITLE3=Some Things Change
TTITLE4=Army Dreamers
TTITLE5=Red Sun (Behling Mix)
TTITLE6=Red Sun (Echo lake Mix)
EXTD=
EXTT0=
EXTT1=
EXTT2=
EXTT3=
EXTT4=
EXTT5=
EXTT6=
PLAYORDER=
